<svg xmlns="http://www.w3.org/2000/svg" viewBox="0 0 512.092 512.092" width="512" height="512" fill="#fff" xmlns:v="https://vecta.io/nano"><path d="M312.453 199.6c-6.066-6.102-12.792-11.5-20.053-16.128a119.47 119.47 0 0 0-64.427-18.859 118.95 118.95 0 0 0-84.48 34.987L34.95 308.23C12.613 330.6.06 360.93.04 392.548c-.042 65.98 53.4 119.5 119.4 119.543a118.7 118.7 0 0 0 84.395-34.816l89.6-89.6c1.628-1.614 2.537-3.816 2.524-6.108-.027-4.713-3.87-8.5-8.583-8.484h-3.413c-18.72.066-37.273-3.53-54.613-10.58a8.53 8.53 0 0 0-9.3 1.877l-64.44 64.5c-20.006 20.006-52.442 20.006-72.448 0s-20.006-52.442 0-72.448l108.97-108.885c20-19.965 52.373-19.965 72.363 0 13.472 12.68 34.486 12.68 47.957 0a34.19 34.19 0 0 0 9.9-21.675 34.14 34.14 0 0 0-9.9-26.282zM477.06 34.993c-46.657-46.657-122.303-46.657-168.96 0l-89.515 89.43c-2.458 2.47-3.167 6.185-1.792 9.387a8.53 8.53 0 0 0 8.021 5.205h3.157a143.38 143.38 0 0 1 54.528 10.667 8.53 8.53 0 0 0 9.3-1.877l64.256-64.17c20.006-20.006 52.442-20.006 72.448 0s20.006 52.442 0 72.448L348.46 236.04l-.683.768-28 27.82c-20 19.965-52.373 19.965-72.363 0-13.472-12.68-34.486-12.68-47.957 0a34.14 34.14 0 0 0-9.899 21.845 34.13 34.13 0 0 0 9.9 26.283c9.877 9.92 21.433 18.008 34.133 23.893 1.792.853 3.584 1.536 5.376 2.304s3.67 1.365 5.46 2.048 3.67 1.28 5.46 1.792l5.035 1.365c3.413.853 6.827 1.536 10.325 2.133 4.214.626 8.458 1.025 12.715 1.195h6.485l5.12-.597c1.877-.085 3.84-.512 6.06-.512h2.9l5.888-.853 2.73-.512 4.95-1.024h.94a119.46 119.46 0 0 0 55.38-31.403l108.63-108.63c46.66-46.657 46.66-122.303.003-168.96z"/></svg>