<svg xmlns="http://www.w3.org/2000/svg" xmlns:xlink="http://www.w3.org/1999/xlink" height="512" viewBox="0 0 64 64" width="512" xmlns:v="https://vecta.io/nano"><g fill="#fff"><path d="M26 26h-9.988a1 1 0 0 1-1-1v-7a1 1 0 0 1 1-1H26a1 1 0 0 1 1 1v7a1 1 0 0 1-1 1zm-8.988-2H25v-5h-7.988z"/><use xlink:href="#B"/><use xlink:href="#B" x="-10.01"/><path d="M36.012 39.998h-9.988a1 1 0 0 1-1-1v-7a1 1 0 0 1 1-1h9.988a1 1 0 0 1 1 1v7a1 1 0 0 1-1 1zm-8.99-2h7.988v-5h-7.988z"/><path d="M26.002 39.998h-9.988a1 1 0 0 1-1-1v-7a1 1 0 0 1 1-1h9.988a1 1 0 0 1 1 1v7a1 1 0 0 1-1 1zm-8.988-2h7.988v-5h-7.988z"/><path d="M15.992 39.998H6.004a1 1 0 0 1-1-1v-7a1 1 0 0 1 1-1h9.988a1 1 0 0 1 1 1v7a1 1 0 0 1-1 1zm-8.988-2h7.988v-5H7.004zm34.014 9H31.03a1 1 0 0 1-1-1v-7.002a1 1 0 0 1 1-1h9.988a1 1 0 0 1 1 1v7.002a1 1 0 0 1-1 1zm-9-2h7.988v-5.002H32.03z"/><path d="M63 47.002H41a1 1 0 0 1-1-1V39a1 1 0 0 1 1-1h22a1 1 0 0 1 1 1v7.002a1 1 0 0 1-1 1zm-21-2h20V40H42z"/><path d="M58 40H36a1 1 0 0 1-1-1v-7a1 1 0 0 1 1-1h22a1 1 0 0 1 1 1v7a1 1 0 0 1-1 1zm-21-2h20v-5H37z"/><path d="M53 33H31a1 1 0 0 1-1-1v-7.002a1 1 0 0 1 1-1h22a1 1 0 0 1 1 1V32a1 1 0 0 1-1 1zm-21-2h20v-5.002H32z"/><path d="M48 26H26a1 1 0 0 1-1-1v-7a1 1 0 0 1 1-1h22a1 1 0 0 1 1 1v7a1 1 0 0 1-1 1zm-21-2h20v-5H27zm4.008 22.998H21.02a1 1 0 0 1-1-1v-7.002a1 1 0 0 1 1-1h9.988a1 1 0 0 1 1 1v7.002a1 1 0 0 1-1 1zm-8.988-2h7.988v-5.002H22.02z"/><path d="M20.998 46.998H11a1 1 0 0 1-1-1v-7.002a1 1 0 0 1 1-1h9.988a1 1 0 0 1 1 1v7.002a1 1 0 0 1-1 1zm-8.988-2h7.988v-5.002H12z"/><path d="M10.988 46.998H1a1 1 0 0 1-1-1v-7.002a1 1 0 0 1 1-1h9.988a1 1 0 0 1 1 1v7.002a1 1 0 0 1-1 1zm-8.988-2h7.988v-5.002H2zm46-.996h-6.875a1 1 0 1 1 0-2H48a1 1 0 1 1 0 2zM58 36h-8a1 1 0 1 1 0-2h8a1 1 0 1 1 0 2zm-20-6.012h-6.875a1 1 0 1 1 0-2H38a1 1 0 1 1 0 2zM48 22h-8a1 1 0 1 1 0-2h8a1 1 0 1 1 0 2z"/></g><defs ><path id="B" d="M31.006 33h-9.988a1 1 0 0 1-1-1v-7.002a1 1 0 0 1 1-1h9.988a1 1 0 0 1 1 1V32a1 1 0 0 1-1 1zm-8.988-2h7.988v-5.002h-7.988z"/></defs></svg>