<svg xmlns="http://www.w3.org/2000/svg" width="512" height="512" xmlns:v="https://vecta.io/nano"><path d="M355.876 366.15h36.597v-30.42h-48.78l-52.02-129.878c14.082-10.765 23.2-27.724 23.2-46.778 0-27.198-18.546-50.136-43.653-56.86V90.067h20.65V0H220.14v90.067h20.65v12.147c-25.107 6.723-43.653 29.66-43.653 56.86 0 19.054 9.107 36.014 23.2 46.778l-52.02 129.878h-48.78v30.42h36.597L102.24 500.69l28.24 11.3 58.417-145.85h51.897v31.134h30.42V366.15h51.897L381.523 512l28.24-11.3-53.887-134.54zm-84.668-30.42v-31.135h-30.42v31.135h-39.712l47.38-118.294a59.23 59.23 0 0 0 7.543.5c2.557 0 5.07-.183 7.542-.5l47.38 118.294h-39.71z" fill="#fff"/></svg>