<svg xmlns="http://www.w3.org/2000/svg" width="512" height="512" viewBox="0 0 612 612" xmlns:v="https://vecta.io/nano"><path d="M257.938 336.072c0 17.355-14.068 31.424-31.423 31.424s-31.422-14.068-31.422-31.424 14.068-31.423 31.422-31.423 31.423 14.07 31.423 31.423zm127.547-31.422c-17.354 0-31.423 14.068-31.423 31.424s14.07 31.422 31.423 31.422 31.424-14.068 31.424-31.422-14.07-31.424-31.424-31.424zM612 318.557v59.72c0 29.982-24.305 54.287-54.288 54.287h-39.394C479.283 540.947 379.604 606.412 306 606.412s-173.283-65.465-212.318-173.85H54.288C24.305 432.562 0 408.258 0 378.275v-59.72c0-20.63 11.51-38.573 28.46-47.758.57-84.785 25.28-151.002 73.553-196.78C149.895 28.613 218.526 5.588 306 5.588s156.105 23.025 203.987 68.43c48.272 45.777 72.982 111.995 73.553 196.78 16.95 9.186 28.46 27.128 28.46 47.76zM497.1 336.27c0-13.97-.715-27.094-1.77-39.812-24.093-22.043-67.832-38.77-123.033-44.984 7.248 8.15 13.51 18.87 17.306 32.983-33.812-26.637-100.18-20.297-150.382-79.905a158.89 158.89 0 0 1-7.519-9.417c-.025-.035-.053-.062-.078-.096l.006.002c-8.93-12.078-11.976-19.262-12.146-11.3-1.473 68.513-50.034 121.925-103.958 129.46-.34 7.535-.62 15.143-.62 23.08 0 28.96 4.73 55.352 12.77 79.137 30.3 36.537 80.312 46.854 124.586 49.6 8.22-13.076 26.66-22.205 48.136-22.205 29.117 0 52.72 16.754 52.72 37.424s-23.604 37.422-52.72 37.422c-22.397 0-41.483-9.93-49.122-23.912-30.943-1.8-64.96-7.074-95.276-21.39C198.63 535.18 264.725 568.4 306 568.4c64.86 0 191.1-81.935 191.1-232.14zm53.756-72.002C547.4 116.318 462.95 38.162 306 38.162S64.6 116.318 61.145 264.27h20.887c7.637-49.867 23.778-90.878 48.285-122.412C169.37 91.61 228.478 66.13 306 66.13s136.63 25.48 175.685 75.727C506.2 173.4 522.332 214.402 529.97 264.27h20.886z" fill="#fff"/></svg>