<svg xmlns="http://www.w3.org/2000/svg" viewBox="0 0 297 297" width="512" height="512" fill="#fff" xmlns:v="https://vecta.io/nano"><path d="M148.5 117.216c32.317 0 58.608-26.3 58.608-58.608S180.827 0 148.5 0 89.902 26.3 89.902 58.608s26.3 58.608 58.608 58.608zm78.654 28.402l-.098-.032c-7.63-1.864-31-5.133-31-5.133-2.638-.812-5.457.585-6.406 3.188l-35.174 96.5c-2.03 5.567-9.903 5.567-11.932 0l-35.174-96.5c-.766-2.102-2.75-3.42-4.876-3.42-.504 0-24.53 3.37-32.53 5.358-21.858 5.435-35.645 26.93-35.645 49.33v80.29c0 12.034 9.756 21.8 21.8 21.8H240.9c12.034 0 21.8-9.756 21.8-21.8v-80.57c-.001-22.303-14.328-42.096-35.528-49.023zm-65.38-7.005c-1.404-1.53-3.456-2.3-5.532-2.3h-15.485c-2.076 0-4.13.77-5.532 2.3a7.18 7.18 0 0 0-.946 8.462l8.278 12.48-3.875 32.7 7.63 20.3c.744 2.042 3.63 2.042 4.375 0l7.63-20.3-3.875-32.7 8.278-12.48c1.54-2.673 1.225-6.094-.948-8.462z"/></svg>