<svg xmlns="http://www.w3.org/2000/svg" width="512" height="512" viewBox="0 0 128 128" fill="#fff" xmlns:v="https://vecta.io/nano"><path d="M43.937 46.688H25.75A10.762 10.762 0 0 0 15 57.438v13.125a10.762 10.762 0 0 0 10.75 10.75h27.187a1.75 1.75 0 0 0 1.75-1.75V57.438a10.762 10.762 0 0 0-10.75-10.75zm7.25 31.125H25.75a7.258 7.258 0 0 1-7.25-7.25V57.438a7.258 7.258 0 0 1 7.25-7.25h18.187a7.258 7.258 0 0 1 7.25 7.25z"/><path d="M126.25 78.386H69.687V65.063h6.56A1.751 1.751 0 0 0 78 63.313V50.5a9.948 9.948 0 0 0-9.938-9.937h-4.7a25.687 25.687 0 0 0-19.425-8.875H25.75A25.779 25.779 0 0 0 0 57.438v13.125a25.779 25.779 0 0 0 25.75 25.75h42.187a1.75 1.75 0 0 0 1.75-1.75v-5.128h47.686v5.128a1.751 1.751 0 0 0 1.75 1.75h7.127a1.751 1.751 0 0 0 1.75-1.75V80.136a1.75 1.75 0 0 0-1.75-1.75zm-58.2-34.323A6.444 6.444 0 0 1 74.5 50.5v11.063h-4.813v-4.125a25.589 25.589 0 0 0-3.754-13.375zm-1.873 48.75H25.75A22.275 22.275 0 0 1 3.5 70.563V57.438a22.275 22.275 0 0 1 22.25-22.25h18.187a22.275 22.275 0 0 1 22.25 22.25v35.375zm3.5-6.878v-4.05h47.686v4.05zm54.813 6.878h-3.627V81.886h3.627zM34.844 55.28A8.719 8.719 0 1 0 43.562 64a8.728 8.728 0 0 0-8.718-8.719zm0 13.938A5.219 5.219 0 1 1 40.062 64a5.225 5.225 0 0 1-5.218 5.219z"/></svg>