<svg xmlns="http://www.w3.org/2000/svg" width="512" height="512" fill="#fff" xmlns:v="https://vecta.io/nano"><path d="M438.34 61.3L256 7.67 73.66 61.3 0 159.513h28.735V504.33h88.816V232.656h276.9V504.33h88.816V159.513H512L438.34 61.3zm-56.083-.157l43.538 12.805v69.9h-43.538V61.143zm-59.2-17.415l43.537 12.805v87.306h-43.537V43.728zm-59.2-17.414l43.538 12.805v104.72h-43.538V26.314zM204.625 39.12l43.538-12.805V143.84h-43.538V39.12zm-59.2 17.414l43.537-12.805v100.1h-43.537V56.533zm-59.2 17.415l43.538-12.805v82.696h-43.55v-69.9zM70.53 91.595v52.245H31.347L70.53 91.595zm397.06 397.06h-57.47V216.982H101.878v271.673h-57.47V159.513h423.184v329.143zM441.47 143.84V91.595l39.184 52.245H441.47zM211.592 300.574h-78.367V504.33H242.94V300.574h-31.347zm-31.347 15.674h15.673v15.674h-15.673v-15.674zm47.02 172.408h-78.367V410.3h15.673v31.347h47.02V410.3h15.673v78.367zm-47.02-62.694V410.3h15.673v15.673h-15.673zm47.02-31.347H148.9v-78.367h15.673v31.347h47.02v-31.347h15.673v78.367zm120.165 0h-78.367V504.33h109.714V394.615H347.43zm-31.347 15.674h15.674v15.673h-15.674V410.3zm47.02 78.367h-78.367V410.3h15.673v31.347h47.02V410.3h15.67v78.367zM279.5 185.637h15.673V201.3H279.5zm-31.337 0h15.673V201.3h-15.673zm-31.347 0h15.673V201.3h-15.673z"/></svg>