<svg xmlns="http://www.w3.org/2000/svg" viewBox="0 0 16.594 16.594" width="512" height="512" fill="#fff" xmlns:v="https://vecta.io/nano"><path d="M9.35 9.147s-.717-6.853-3.416-6.853H1.6v6.303H.492c-1.107 0 0 3.918 0 3.918h.687c.047-.973.852-1.75 1.838-1.75s1.8.778 1.837 1.75h2.24l-.002-.026c0-1.08.88-1.958 1.96-1.958a1.96 1.96 0 0 1 1.958 1.958 2.01 2.01 0 0 1-.035.367h.693l-1.154-3.624c-1.06.597-1.165-.085-1.165-.085zm-3.49.217l-1.022-1.79H2.622V3.317h3.13c.914 0 1.42 1.273 1.683 2.342l.73 3.706H5.86v-.001z"/><path d="M9.062 10.758a1.7 1.7 0 1 0 0 3.4 1.7 1.7 0 1 0 0-3.4zm0 2.686c-.543 0-.985-.442-.985-.985s.442-.984.985-.984.984.44.984.984-.44.985-.984.985zM2.97 11.07c-.893 0-1.616.725-1.616 1.616S2.076 14.3 2.97 14.3s1.615-.725 1.615-1.615a1.62 1.62 0 0 0-1.615-1.616zm0 2.55c-.516 0-.935-.42-.935-.935a.94.94 0 0 1 .935-.937.94.94 0 0 1 .935.937c0 .516-.42.935-.935.935zm13.605-2.78c-.063-.192-.27-.298-.46-.233l-3.544 1.167-3.063-9.202c-.064-.192-.27-.294-.464-.23a.36.36 0 0 0-.23.463l3.18 9.548c.052.153.193.25.348.25.038 0 .076-.006.114-.018l3.9-1.282c.2-.064.296-.27.23-.462z"/></svg>