<svg xmlns="http://www.w3.org/2000/svg" viewBox="0 0 414.4 414.4" width="512" height="512" xmlns:v="https://vecta.io/nano"><path d="M397.6 249.2h-32.8v-42.4c0-4.8-3.2-8-8-8H215.2v-34.4H248c9.6 0 16.8-7.2 16.8-16.8V66.8c0-9.6-7.2-16.8-16.8-16.8h-81.6c-9.6 0-16.8 7.2-16.8 16.8v81.6c0 9.6 7.2 16.8 16.8 16.8h32.8v33.6H57.6c-4.8 0-8 3.2-8 8v42.4H16.8C7.2 249.2 0 256.4 0 266v81.6c0 9.6 7.2 16.8 16.8 16.8h81.6c9.6 0 16.8-7.2 16.8-16.8V266c0-9.6-7.2-16.8-16.8-16.8H65.6v-34.4h133.6v34.4h-32.8c-9.6 0-16.8 7.2-16.8 16.8v81.6c0 9.6 7.2 16.8 16.8 16.8H248c9.6 0 16.8-7.2 16.8-16.8V266c0-9.6-7.2-16.8-16.8-16.8h-32.8v-34.4h133.6v34.4H316c-9.6 0-16.8 7.2-16.8 16.8v81.6c0 9.6 7.2 16.8 16.8 16.8h81.6c9.6 0 16.8-7.2 16.8-16.8V266c0-9.6-8-16.8-16.8-16.8zM99.2 266c-.8-.8 0-.8 0 0v81.6c0 .8 0 .8-.8.8H16.8c-.8 0-.8 0-.8-.8V266c0-.8 0-.8.8-.8l82.4.8zm149.6 0c-.8-.8 0-.8 0 0v81.6c0 .8 0 .8-.8.8h-81.6c-.8 0-.8 0-.8-.8V266c0-.8 0-.8.8-.8l82.4.8zm-83.2-118.4c.8.8 0 .8 0 0V66.8c0-.8 0-.8.8-.8H248c.8 0 .8 0 .8.8v81.6c0 .8 0 .8-.8.8l-82.4-1.6zm232.8 199.2c0 .8-.8.8 0 0l-82.4.8c-.8 0-.8 0-.8-.8V266c0-.8 0-.8.8-.8h81.6c.8 0 .8 0 .8.8v80.8z" fill="#fff"/></svg>