<svg xmlns="http://www.w3.org/2000/svg" height="512" viewBox="0 0 60 57" width="512" fill-rule="nonzero" fill="#fff" xmlns:v="https://vecta.io/nano"><path d="M4 38V24H3a3 3 0 0 0-3 3v8a3 3 0 0 0 3 3z"/><rect height="20" rx="2" width="8" x="46" y="21"/><path d="M57 24h-1v14h1a3 3 0 0 0 3-3v-8a3 3 0 0 0-3-3zm-44.75-5a18 18 0 0 1 35.5 0h4C50.174 8.2 40.905.173 29.98.173A22.03 22.03 0 0 0 8.2 19h4zM8 41h1v5a9 9 0 0 0 9 9h4.18A3 3 0 0 0 25 57h10a3 3 0 1 0 0-6H25a3 3 0 0 0-2.82 2H18a7 7 0 0 1-7-7v-5h1a2 2 0 0 0 2-2V23a2 2 0 0 0-2-2H8a2 2 0 0 0-2 2v16a2 2 0 0 0 2 2z"/></svg>