<?xml version="1.0"?>
<svg xmlns="http://www.w3.org/2000/svg" xmlns:xlink="http://www.w3.org/1999/xlink" version="1.1" id="Capa_1" x="0px" y="0px" viewBox="0 0 193.864 193.864" style="enable-background:new 0 0 193.864 193.864;" xml:space="preserve" width="512px" height="512px" class=""><g><path d="M188.864,163.339h-3.52V11.478c0-2.762-2.238-5-5-5s-5,2.238-5,5v14.029h-68.374v-3.061c0-5.652-4.598-10.25-10.25-10.25  H96.04c-5.652,0-10.25,4.598-10.25,10.25v3.061H74.964v-3.061c0-5.652-4.598-10.25-10.25-10.25h-0.681  c-5.652,0-10.25,4.598-10.25,10.25v3.061h-3.826v-3.061c0-5.652-4.598-10.25-10.25-10.25h-0.681c-5.652,0-10.25,4.598-10.25,10.25  v3.061H18.519V11.478c0-2.762-2.238-5-5-5s-5,2.238-5,5v151.861H5c-2.762,0-5,2.238-5,5v14.047c0,2.762,2.238,5,5,5h183.864  c2.762,0,5-2.238,5-5v-14.047C193.864,165.578,191.626,163.339,188.864,163.339z M39.026,48.818h0.681  c5.652,0,10.25-4.598,10.25-10.25v-3.061h3.826v3.061c0,5.652,4.598,10.25,10.25,10.25h0.681c5.652,0,10.25-4.598,10.25-10.25  v-3.061H85.79v3.061c0,5.652,4.598,10.25,10.25,10.25h0.681c5.652,0,10.25-4.598,10.25-10.25v-3.061h68.374v31.655h-11.338v-3.061  c0-5.652-4.598-10.25-10.25-10.25h-0.681c-5.652,0-10.25,4.598-10.25,10.25v3.061h-9.054v-3.061c0-5.652-4.598-10.25-10.25-10.25  h-0.681c-5.652,0-10.25,4.598-10.25,10.25v3.061H18.519V35.507h10.258v3.061C28.776,44.22,33.374,48.818,39.026,48.818z   M123.522,101.507h-0.681c-5.652,0-10.25,4.598-10.25,10.25v3.061H93.971v-3.061c0-5.652-4.598-10.25-10.25-10.25H83.04  c-5.652,0-10.25,4.598-10.25,10.25v3.061h-3.826v-3.061c0-5.652-4.598-10.25-10.25-10.25h-0.681c-5.652,0-10.25,4.598-10.25,10.25  v3.061h-2.826v-3.061c0-5.652-4.598-10.25-10.25-10.25h-0.681c-5.652,0-10.25,4.598-10.25,10.25v3.061h-5.258V77.163h94.073v3.061  c0,5.652,4.598,10.25,10.25,10.25h0.681c5.652,0,10.25-4.598,10.25-10.25v-3.061h9.054v3.061c0,5.652,4.598,10.25,10.25,10.25h0.681  c5.652,0,10.25-4.598,10.25-10.25v-3.061h11.338v37.655h-41.572v-3.061C133.772,106.105,129.175,101.507,123.522,101.507z   M18.519,124.818h5.258v3.061c0,5.652,4.598,10.25,10.25,10.25h0.681c5.652,0,10.25-4.598,10.25-10.25v-3.061h2.826v3.061  c0,5.652,4.598,10.25,10.25,10.25h0.681c5.652,0,10.25-4.598,10.25-10.25v-3.061h3.826v3.061c0,5.652,4.598,10.25,10.25,10.25h0.681  c5.652,0,10.25-4.598,10.25-10.25v-3.061h18.621v3.061c0,5.652,4.598,10.25,10.25,10.25h0.681c5.652,0,10.25-4.598,10.25-10.25  v-3.061h41.572v38.521H18.519V124.818z" data-original="#000000" class="active-path" data-old_color="#000000" fill="#FFFFFF"/></g> </svg>
