<?xml version="1.0"?>
<svg xmlns="http://www.w3.org/2000/svg" height="512px" viewBox="0 0 128 128" width="512px" class=""><g transform="matrix(1.51879 0 0 1.51879 -33.2025 -33.2025)"><g><path d="m84.582 39.805a4.413 4.413 0 1 0 -4.413-4.412 4.417 4.417 0 0 0 4.413 4.412zm0-5.326a.913.913 0 1 1 -.913.914.914.914 0 0 1 .913-.914z" data-original="#000000" class="active-path" data-old_color="#000000" fill="#FFFFFF"/><path d="m51.249 35.528h.075a8.056 8.056 0 0 0 10.721 3.426 7.357 7.357 0 0 0 12.864-3.161 6.158 6.158 0 1 0 -6.992-8.893 7.2 7.2 0 0 0 -2.72.441 8.056 8.056 0 0 0 -10.66-2.648 5.865 5.865 0 0 0 -3.288-1.012 5.923 5.923 0 1 0 0 11.846zm0-8.346a2.383 2.383 0 0 1 1.826.857 1.747 1.747 0 0 0 2.449.2 4.556 4.556 0 0 1 7.239 2.04 1.75 1.75 0 0 0 2.687.856 3.724 3.724 0 0 1 3.179-.623 1.749 1.749 0 0 0 2.117-1.292 2.654 2.654 0 1 1 2.575 3.28 1.758 1.758 0 0 0 -1.75 1.759 3.859 3.859 0 0 1 -7.394 1.548 1.748 1.748 0 0 0 -1.218-1 1.669 1.669 0 0 0 -.384-.043 1.751 1.751 0 0 0 -1.147.428 4.554 4.554 0 0 1 -7.343-2.107 1.749 1.749 0 0 0 -2.164-1.167 2.415 2.415 0 1 1 -.672-4.732z" data-original="#000000" class="active-path" data-old_color="#000000" fill="#FFFFFF"/><path d="m102.568 68.917h-3.512l-2.6-22.784h.039a1.75 1.75 0 0 0 0-3.5h-18.5a1.75 1.75 0 0 0 0 3.5h.039l-2.6 22.784h-10.6a1.757 1.757 0 0 0 -1.115.4l-8.809 7.277.007-5.925a1.75 1.75 0 0 0 -2.841-1.37l-9.256 7.383-.008-6.017a1.75 1.75 0 0 0 -1.75-1.748h-15.63a1.749 1.749 0 0 0 -1.75 1.75v31.9a1.749 1.749 0 0 0 1.75 1.75h77.136a1.749 1.749 0 0 0 1.75-1.75v-31.9a1.749 1.749 0 0 0 -1.75-1.75zm-21.012-22.784h11.376l2.6 22.784h-16.577zm8.355 54.685h-11.167v-12.451h11.167zm10.907 0h-7.407v-14.2a1.75 1.75 0 0 0 -1.75-1.75h-14.667a1.75 1.75 0 0 0 -1.75 1.75v14.2h-48.062v-28.4h12.133l.01 7.9a1.751 1.751 0 0 0 2.842 1.367l9.246-7.376-.007 6.006a1.75 1.75 0 0 0 2.865 1.351l11.191-9.245h35.356z" data-original="#000000" class="active-path" data-old_color="#000000" fill="#FFFFFF"/><path d="m53.366 84.867h-5.951a1.749 1.749 0 0 0 -1.75 1.75v5.951a1.749 1.749 0 0 0 1.75 1.75h5.951a1.75 1.75 0 0 0 1.75-1.75v-5.951a1.75 1.75 0 0 0 -1.75-1.75zm-1.75 5.951h-2.451v-2.451h2.451z" data-original="#000000" class="active-path" data-old_color="#000000" fill="#FFFFFF"/><path d="m68.481 84.867h-5.95a1.749 1.749 0 0 0 -1.75 1.75v5.951a1.749 1.749 0 0 0 1.75 1.75h5.95a1.749 1.749 0 0 0 1.75-1.75v-5.951a1.749 1.749 0 0 0 -1.75-1.75zm-1.75 5.951h-2.45v-2.451h2.45z" data-original="#000000" class="active-path" data-old_color="#000000" fill="#FFFFFF"/><path d="m38.25 84.867h-5.95a1.75 1.75 0 0 0 -1.75 1.75v5.951a1.75 1.75 0 0 0 1.75 1.75h5.95a1.75 1.75 0 0 0 1.75-1.75v-5.951a1.75 1.75 0 0 0 -1.75-1.75zm-1.75 5.951h-2.451v-2.451h2.451z" data-original="#000000" class="active-path" data-old_color="#000000" fill="#FFFFFF"/></g></g> </svg>
