<?xml version="1.0"?>
<svg xmlns="http://www.w3.org/2000/svg" xmlns:xlink="http://www.w3.org/1999/xlink" version="1.1" id="Capa_1" x="0px" y="0px" viewBox="0 0 512 512" style="enable-background:new 0 0 512 512;" xml:space="preserve" width="512px" height="512px" class=""><g><polygon style="fill:#FFFFFF" points="512,507.62 388.414,507.62 388.414,348.723 512,295.758 " data-original="#9E3D1F" class="active-path" data-old_color="#9E3D1F"/><g>
	<polygon style="fill:#FFFFFF" points="388.414,507.62 264.828,507.62 264.828,348.723 388.414,295.758  " data-original="#D25627" class="" data-old_color="#D25627"/>
	<polygon style="fill:#FFFFFF" points="158.897,507.62 0,507.62 17.655,348.723 141.241,348.723  " data-original="#D25627" class="" data-old_color="#D25627"/>
</g><polygon style="fill:#FFFFFF" points="123.586,348.723 35.31,348.723 52.966,110.378 105.931,110.378 " data-original="#BDC3C7" class="" data-old_color="#BDC3C7"/><polygon style="fill:#FFFFFF" points="141.241,348.723 158.897,507.62 264.828,507.62 264.828,348.723 " data-original="#9E3D1F" class="active-path" data-old_color="#9E3D1F"/><path style="fill:#FFFFFF" d="M229.517,348.723h-52.966v-76.12c0-6.718,5.438-12.156,12.156-12.156h28.654  c6.718,0,12.156,5.438,12.156,12.156V348.723z" data-original="#BDC3C7" class="" data-old_color="#BDC3C7"/><polygon style="fill:#FFFFFF" points="308.966,507.621 344.276,507.621 344.276,445.827 308.966,445.827 " data-original="#9E3D1F" class="active-path" data-old_color="#9E3D1F"/><polygon style="fill:#FFFFFF" points="432.552,507.621 467.862,507.621 467.862,445.827 432.552,445.827 " data-original="#D25627" class="" data-old_color="#D25627"/><polygon style="fill:#FFFFFF" points="52.966,507.621 105.931,507.621 105.931,437 52.966,437 " data-original="#9E3D1F" class="active-path" data-old_color="#9E3D1F"/><path style="fill:#FFFFFF" d="M273.655,136.861c30.349,30.349,52.966,26.483,52.966,26.483c34.763,0,61.793-35.31,61.793-35.31  c21.107,21.107,44.138,17.655,44.138,17.655c2.375,0,4.679-0.026,6.903-0.079c58.244-1.324,88.435-70.877,47.978-112.79  c-1.201-1.245-1.916-1.889-1.916-1.889c0,59.039-35.31,52.966-35.31,52.966c-24.911,0-45.224-25.953-55.172-41.525  c-7.256-11.37-16.34-21.583-27.551-29.078c-15.404-10.293-23.208-8.845-23.208-8.845c-44.685,0-61.793,35.31-61.793,35.31  c0-27.313-35.31-26.483-35.31-26.483c-43.864,0-61.793,17.655-61.793,17.655h-17.655c-64.83,0-79.448,44.138-79.448,44.138  s64.185-25.009,70.621,8.828c0,0,6.894,61.793,52.966,61.793c0,0,52.966,2.481,52.966-17.655L273.655,136.861z" data-original="#BDC3C7" class="" data-old_color="#BDC3C7"/><g>
	<path style="fill:#FFFFFF" d="M185.379,472.308c-4.873,0-8.828-3.955-8.828-8.828v-70.621c0-4.873,3.955-8.828,8.828-8.828   s8.828,3.955,8.828,8.828v70.621C194.207,468.354,190.252,472.308,185.379,472.308" data-original="#D25627" class="" data-old_color="#D25627"/>
	<path style="fill:#FFFFFF" d="M229.517,472.308c-4.873,0-8.828-3.955-8.828-8.828v-70.621c0-4.873,3.955-8.828,8.828-8.828   s8.828,3.955,8.828,8.828v70.621C238.345,468.354,234.39,472.308,229.517,472.308" data-original="#D25627" class="" data-old_color="#D25627"/>
</g><polygon style="fill:#FFFFFF" points="308.966,401.689 344.276,401.689 344.276,366.379 308.966,366.379 " data-original="#9E3D1F" class="active-path" data-old_color="#9E3D1F"/><polygon style="fill:#FFFFFF" points="432.552,401.689 467.862,401.689 467.862,366.379 432.552,366.379 " data-original="#D25627" class="" data-old_color="#D25627"/></g> </svg>
