<?xml version="1.0"?>
<svg xmlns="http://www.w3.org/2000/svg" height="512px" viewBox="0 0 128 128" width="512px" class=""><g transform="matrix(1.58046 0 0 1.58046 -37.1493 -37.1493)"><g><path d="m97.494 70.667h-20.5l3-26.285h14.5z" fill="#074b82" data-original="#074B82" class="active-path" style="fill:#FFFFFF" data-old_color="#074b82"/><path d="m96.494 46.133h-18.5a1.75 1.75 0 0 1 0-3.5h18.5a1.75 1.75 0 0 1 0 3.5z" fill="#0e68ac" data-original="#0E68AC" class="" style="fill:#FFFFFF" data-old_color="#0e68ac"/><circle cx="84.582" cy="35.392" fill="#9ee5fe" r="2.663" data-original="#9EE5FE" class="" style="fill:#FFFFFF" data-old_color="#9ee5fe"/><path d="m51.249 25.432a4.144 4.144 0 0 1 3.151 1.468 6.307 6.307 0 0 1 10.019 2.822 5.534 5.534 0 0 1 4.624-.906 4.4 4.4 0 1 1 4.277 5.435v.009a5.609 5.609 0 0 1 -10.745 2.25 6.305 6.305 0 0 1 -10.164-2.916 4.165 4.165 0 1 1 -1.162-8.162z" fill="#9ee5fe" data-original="#9EE5FE" class="" style="fill:#FFFFFF" data-old_color="#9ee5fe"/><path d="m102.568 102.568h-77.136v-31.901h15.63l.013 9.645 12.092-9.645-.011 9.645 11.677-9.645h37.735z" fill="#e10f5a" data-original="#E10F5A" class="" style="fill:#FFFFFF" data-old_color="#e10f5a"/><g fill="#9ee5fe"><path d="m47.415 86.618h5.951v5.951h-5.951z" data-original="#9EE5FE" class="" style="fill:#FFFFFF" data-old_color="#9EE5FE"/><path d="m62.531 86.618h5.951v5.951h-5.951z" data-original="#9EE5FE" class="" style="fill:#FFFFFF" data-old_color="#9EE5FE"/><path d="m32.299 86.618h5.951v5.951h-5.951z" data-original="#9EE5FE" class="" style="fill:#FFFFFF" data-old_color="#9EE5FE"/><path d="m76.994 86.618h14.667v15.951h-14.667z" data-original="#9EE5FE" class="" style="fill:#FFFFFF" data-old_color="#9EE5FE"/></g></g></g> </svg>
